<svg width="348" height="98" viewBox="0 0 348 98" fill="none" xmlns="http://www.w3.org/2000/svg">
<g clip-path="url(#clip0_0_29)">
<rect width="348" height="98" rx="6" fill="white"/>
<path d="M403.5 67C403.5 102.949 381.031 135.562 344.564 159.211C308.101 182.858 257.699 197.5 202 197.5C146.301 197.5 95.899 182.858 59.4365 159.211C22.9691 135.562 0.5 102.949 0.5 67C0.5 31.0511 22.9691 -1.56182 59.4365 -25.2115C95.899 -48.858 146.301 -63.5 202 -63.5C257.699 -63.5 308.101 -48.858 344.564 -25.2115C381.031 -1.56182 403.5 31.0511 403.5 67Z" stroke="url(#paint0_linear_0_29)" stroke-opacity="0.25"/>
<path d="M403.5 26C403.5 50.5904 385.664 72.9562 356.6 89.2032C327.553 105.441 287.39 115.5 243 115.5C198.61 115.5 158.447 105.441 129.4 89.2032C100.336 72.9562 82.5 50.5904 82.5 26C82.5 1.40964 100.336 -20.9562 129.4 -37.2032C158.447 -53.441 198.61 -63.5 243 -63.5C287.39 -63.5 327.553 -53.441 356.6 -37.2032C385.664 -20.9562 403.5 1.40964 403.5 26Z" stroke="url(#paint1_linear_0_29)" stroke-opacity="0.25"/>
<path d="M403.5 -27C403.5 -22.1043 400.605 -17.3658 395.198 -12.9865C389.796 -8.61055 381.948 -4.64764 372.205 -1.31006C352.726 5.36342 325.783 9.5 296 9.5C266.217 9.5 239.274 5.36342 219.795 -1.31006C210.052 -4.64764 202.204 -8.61055 196.802 -12.9865C191.395 -17.3658 188.5 -22.1043 188.5 -27C188.5 -31.8957 191.395 -36.6342 196.802 -41.0135C202.204 -45.3894 210.052 -49.3524 219.795 -52.6899C239.274 -59.3634 266.217 -63.5 296 -63.5C325.783 -63.5 352.726 -59.3634 372.205 -52.6899C381.948 -49.3524 389.796 -45.3894 395.198 -41.0135C400.605 -36.6342 403.5 -31.8957 403.5 -27Z" stroke="url(#paint2_linear_0_29)" stroke-opacity="0.25"/>
<path d="M403.5 -2.5C403.5 14.1717 388.921 29.422 364.981 40.5335C341.083 51.6259 308.033 58.5 271.5 58.5C234.967 58.5 201.917 51.6259 178.019 40.5335C154.079 29.422 139.5 14.1717 139.5 -2.5C139.5 -19.1717 154.079 -34.4219 178.019 -45.5335C201.917 -56.6259 234.967 -63.5 271.5 -63.5C308.033 -63.5 341.083 -56.6259 364.981 -45.5335C388.921 -34.4219 403.5 -19.1717 403.5 -2.5Z" stroke="url(#paint3_linear_0_29)" stroke-opacity="0.25"/>
</g>
<defs>
<linearGradient id="paint0_linear_0_29" x1="202" y1="-64" x2="202" y2="198" gradientUnits="userSpaceOnUse">
<stop stop-color="#151515" stop-opacity="0.5"/>
<stop offset="1" stop-color="#151515" stop-opacity="0.25"/>
</linearGradient>
<linearGradient id="paint1_linear_0_29" x1="243" y1="-64" x2="243" y2="116" gradientUnits="userSpaceOnUse">
<stop stop-color="#151515" stop-opacity="0.5"/>
<stop offset="1" stop-color="#151515" stop-opacity="0.25"/>
</linearGradient>
<linearGradient id="paint2_linear_0_29" x1="296" y1="-64" x2="296" y2="10" gradientUnits="userSpaceOnUse">
<stop stop-color="#151515" stop-opacity="0.5"/>
<stop offset="1" stop-color="#151515" stop-opacity="0.25"/>
</linearGradient>
<linearGradient id="paint3_linear_0_29" x1="271.5" y1="-64" x2="271.5" y2="59" gradientUnits="userSpaceOnUse">
<stop stop-color="#151515" stop-opacity="0.5"/>
<stop offset="1" stop-color="#151515" stop-opacity="0.25"/>
</linearGradient>
<clipPath id="clip0_0_29">
<rect width="348" height="98" rx="6" fill="white"/>
</clipPath>
</defs>
</svg>
