<svg width="41" height="39" viewBox="0 0 41 39" fill="none" xmlns="http://www.w3.org/2000/svg">
<rect width="41" height="39" rx="10" fill="#C9A038" fill-opacity="0.16"/>
<path d="M20.2992 9.09961C20.4716 9.09961 20.6369 9.16809 20.7588 9.28999C20.8807 9.41189 20.9492 9.57722 20.9492 9.74961V11.6996L22.2492 11.7009C22.7664 11.7009 23.2624 11.9064 23.6281 12.2721C23.9938 12.6377 24.1992 13.1337 24.1992 13.6509V16.9698C23.4651 17.1197 22.8054 17.5185 22.3316 18.0989C21.8578 18.6793 21.5991 19.4056 21.5992 20.1548V29.8996H18.9992V16.9048C18.9992 16.2152 18.7253 15.5539 18.2377 15.0663C17.7501 14.5787 17.0888 14.3048 16.3992 14.3048V13.6509C16.3992 13.1337 16.6047 12.6377 16.9704 12.2721C17.3361 11.9064 17.832 11.7009 18.3492 11.7009H19.6492V9.74961C19.6492 9.57722 19.7177 9.41189 19.8396 9.28999C19.9615 9.16809 20.1268 9.09961 20.2992 9.09961ZM17.2364 15.9103C16.8724 15.6542 16.6124 15.6451 16.394 15.7114C16.3335 15.7347 16.2749 15.7625 16.2185 15.7946L12.1456 18.2386C11.857 18.4119 11.6181 18.6569 11.4523 18.9499C11.2864 19.2428 11.1992 19.5738 11.1992 19.9104V27.9496C11.1992 28.4668 11.4047 28.9628 11.7704 29.3285C12.1361 29.6942 12.632 29.8996 13.1492 29.8996H17.6992V16.9048C17.6992 16.7153 17.6578 16.5281 17.5778 16.3564C17.4979 16.1846 17.3814 16.0323 17.2364 15.9103ZM26.1492 18.1996V18.2048H24.8492C24.332 18.2048 23.8361 18.4103 23.4704 18.776C23.1047 19.1416 22.8992 19.6376 22.8992 20.1548V29.8996H27.4492C27.9664 29.8996 28.4624 29.6942 28.8281 29.3285C29.1938 28.9628 29.3992 28.4668 29.3992 27.9496V20.1496C29.3992 19.6324 29.1938 19.1364 28.8281 18.7708C28.4624 18.4051 27.9664 18.1996 27.4492 18.1996H26.1492Z" fill="black"/>
</svg>
