<svg width="103" height="101" viewBox="0 0 103 101" fill="none" xmlns="http://www.w3.org/2000/svg">
<g filter="url(#filter0_d_248_4034)">
<g clip-path="url(#clip0_248_4034)">
<path d="M19.6738 54.5529C19.6738 56.0796 20.9175 57.3256 22.4414 57.3256H27.9766C29.5005 57.3256 30.7441 56.0796 30.7441 54.5529V26.8262H19.6738V54.5529ZM69.7584 37.9169C71.3065 36.4093 72.2578 34.6763 72.2578 32.8134C72.2578 28.2316 68.647 24.6791 64.6574 22.1647C61.0249 19.8686 57.6839 17.1496 54.9708 13.825L54.2686 12.9629L53.5659 13.8293C50.8519 17.1548 47.5118 19.8729 43.8793 22.169C39.8944 24.6861 36.2793 28.2385 36.2793 32.8134C36.2793 34.6763 37.2307 36.4093 38.7788 37.9169H69.7584ZM25.209 12.9629C25.209 12.9629 19.6738 15.7356 19.6738 21.2809V24.0536H30.7441V21.2809C30.7441 15.7356 25.209 12.9629 25.209 12.9629ZM72.2578 40.6896H36.2793C34.7571 40.6896 33.5117 41.9373 33.5117 43.4622V57.3256H39.0469V51.7802C39.0469 50.2535 40.2906 49.0076 41.8145 49.0076C43.3384 49.0076 44.582 50.2535 44.582 51.7802V57.3256H50.1172V51.0871C50.1172 46.9281 54.2686 44.8486 54.2686 44.8486C54.2686 44.8486 58.4199 46.9281 58.4199 51.0871V57.3256H63.9551V51.7802C63.9551 50.2535 65.1988 49.0076 66.7227 49.0076C68.2466 49.0076 69.4902 50.2535 69.4902 51.7802V57.3256H75.0254V43.4622C75.0254 41.9373 73.78 40.6896 72.2578 40.6896Z" fill="#C9A038"/>
</g>
<path d="M7.24797 65.1886V70.8149C7.24797 71.4314 7.4086 71.9046 7.72985 72.2345C8.05111 72.5558 8.5026 72.7164 9.08434 72.7164C9.67476 72.7164 10.1306 72.5558 10.4518 72.2345C10.7731 71.9046 10.9337 71.4314 10.9337 70.8149V65.1886H12.7701V70.8019C12.7701 71.5747 12.6008 72.2302 12.2622 72.7685C11.9322 73.2982 11.4851 73.6976 10.9207 73.9667C10.365 74.2359 9.74422 74.3705 9.05829 74.3705C8.38105 74.3705 7.76458 74.2359 7.2089 73.9667C6.66189 73.6976 6.22776 73.2982 5.90651 72.7685C5.58525 72.2302 5.42462 71.5747 5.42462 70.8019V65.1886H7.24797ZM23.2887 66.9599C24.1744 66.9599 24.8863 67.2334 25.4247 67.7804C25.9717 68.3187 26.2452 69.0741 26.2452 70.0465V74.2793H24.4218V70.294C24.4218 69.7296 24.2785 69.2998 23.992 69.0046C23.7055 68.7007 23.3148 68.5488 22.8199 68.5488C22.325 68.5488 21.9299 68.7007 21.6347 69.0046C21.3482 69.2998 21.2049 69.7296 21.2049 70.294V74.2793H19.3816V70.294C19.3816 69.7296 19.2383 69.2998 18.9518 69.0046C18.6652 68.7007 18.2745 68.5488 17.7796 68.5488C17.276 68.5488 16.8766 68.7007 16.5814 69.0046C16.2949 69.2998 16.1516 69.7296 16.1516 70.294V74.2793H14.3283V67.0641H16.1516V67.9367C16.3861 67.6328 16.6856 67.394 17.0503 67.2203C17.4236 67.0467 17.8317 66.9599 18.2745 66.9599C18.8389 66.9599 19.3425 67.0814 19.7853 67.3245C20.2281 67.559 20.5711 67.8976 20.8142 68.3404C21.0486 67.9236 21.3872 67.5894 21.8301 67.3376C22.2816 67.0858 22.7678 66.9599 23.2887 66.9599ZM29.5952 68.1841C29.8297 67.8021 30.1336 67.5025 30.5069 67.2855C30.889 67.0684 31.3231 66.9599 31.8093 66.9599V68.8744H31.3274C30.7544 68.8744 30.3202 69.009 30.025 69.2781C29.7385 69.5473 29.5952 70.0161 29.5952 70.6847V74.2793H27.7719V67.0641H29.5952V68.1841ZM32.3651 70.6456C32.3651 69.9163 32.5083 69.2694 32.7949 68.7051C33.0901 68.1407 33.4851 67.7066 33.98 67.4027C34.4836 67.0988 35.0437 66.9468 35.6601 66.9468C36.1984 66.9468 36.6673 67.0554 37.0667 67.2724C37.4748 67.4895 37.8004 67.763 38.0435 68.0929V67.0641H39.8799V74.2793H38.0435V73.2244C37.8091 73.563 37.4835 73.8452 37.0667 74.0709C36.6586 74.288 36.1854 74.3965 35.6471 74.3965C35.0393 74.3965 34.4836 74.2402 33.98 73.9277C33.4851 73.6151 33.0901 73.1766 32.7949 72.6122C32.5083 72.0392 32.3651 71.3836 32.3651 70.6456ZM38.0435 70.6717C38.0435 70.2289 37.9567 69.8512 37.783 69.5386C37.6094 69.2173 37.3749 68.9742 37.0797 68.8093C36.7845 68.6356 36.4676 68.5488 36.129 68.5488C35.7904 68.5488 35.4778 68.6313 35.1913 68.7962C34.9047 68.9612 34.6703 69.2043 34.488 69.5256C34.3143 69.8381 34.2275 70.2115 34.2275 70.6456C34.2275 71.0798 34.3143 71.4618 34.488 71.7917C34.6703 72.113 34.9047 72.3604 35.1913 72.5341C35.4865 72.7077 35.799 72.7946 36.129 72.7946C36.4676 72.7946 36.7845 72.7121 37.0797 72.5471C37.3749 72.3735 37.6094 72.1304 37.783 71.8178C37.9567 71.4965 38.0435 71.1145 38.0435 70.6717ZM45.5206 66.9599C46.0676 66.9599 46.5539 67.0814 46.9793 67.3245C47.4048 67.559 47.7347 67.9106 47.9691 68.3795C48.2122 68.8396 48.3338 69.3953 48.3338 70.0465V74.2793H46.5104V70.294C46.5104 69.7209 46.3672 69.2825 46.0807 68.9786C45.7941 68.666 45.4034 68.5097 44.9085 68.5097C44.4049 68.5097 44.0055 68.666 43.7103 68.9786C43.4238 69.2825 43.2805 69.7209 43.2805 70.294V74.2793H41.4572V64.6416H43.2805V67.9627C43.515 67.6501 43.8275 67.407 44.2182 67.2334C44.609 67.051 45.0431 66.9599 45.5206 66.9599ZM59.0937 67.9236C58.8853 67.5416 58.5988 67.2507 58.2341 67.051C57.8694 66.8513 57.444 66.7515 56.9578 66.7515C56.4194 66.7515 55.9419 66.873 55.5251 67.1162C55.1084 67.3593 54.7828 67.7066 54.5483 68.1581C54.3139 68.6096 54.1967 69.1305 54.1967 69.7209C54.1967 70.3287 54.3139 70.8584 54.5483 71.3098C54.7914 71.7613 55.1257 72.1086 55.5512 72.3518C55.9766 72.5949 56.4715 72.7164 57.0359 72.7164C57.7305 72.7164 58.2992 72.5341 58.742 72.1694C59.1848 71.7961 59.4757 71.2795 59.6146 70.6196H56.4889V69.226H61.4119V70.8149C61.2904 71.4488 61.0299 72.0348 60.6305 72.5732C60.2311 73.1115 59.7145 73.5456 59.0807 73.8756C58.4555 74.1968 57.7522 74.3574 56.9708 74.3574C56.0938 74.3574 55.2994 74.1621 54.5874 73.7714C53.8841 73.372 53.3284 72.8206 52.9203 72.1173C52.5209 71.414 52.3212 70.6152 52.3212 69.7209C52.3212 68.8266 52.5209 68.0278 52.9203 67.3245C53.3284 66.6126 53.8841 66.0612 54.5874 65.6705C55.2994 65.2711 56.0895 65.0714 56.9578 65.0714C57.9823 65.0714 58.8723 65.3232 59.6277 65.8268C60.383 66.3217 60.904 67.0206 61.1905 67.9236H59.0937ZM69.3689 67.0641V74.2793H67.5326V73.3676C67.2981 73.6802 66.9899 73.9277 66.6079 74.11C66.2345 74.2836 65.8264 74.3705 65.3836 74.3705C64.8192 74.3705 64.32 74.2532 63.8859 74.0188C63.4517 73.7757 63.1088 73.4241 62.857 72.9639C62.6139 72.495 62.4923 71.9393 62.4923 71.2968V67.0641H64.3156V71.0363C64.3156 71.6094 64.4589 72.0522 64.7454 72.3648C65.032 72.6687 65.4227 72.8206 65.9176 72.8206C66.4212 72.8206 66.8162 72.6687 67.1028 72.3648C67.3893 72.0522 67.5326 71.6094 67.5326 71.0363V67.0641H69.3689ZM71.8891 66.2045C71.5679 66.2045 71.2987 66.1046 71.0817 65.9049C70.8733 65.6965 70.7691 65.4404 70.7691 65.1365C70.7691 64.8326 70.8733 64.5808 71.0817 64.3811C71.2987 64.1727 71.5679 64.0686 71.8891 64.0686C72.2104 64.0686 72.4752 64.1727 72.6836 64.3811C72.9007 64.5808 73.0092 64.8326 73.0092 65.1365C73.0092 65.4404 72.9007 65.6965 72.6836 65.9049C72.4752 66.1046 72.2104 66.2045 71.8891 66.2045ZM72.7878 67.0641V74.2793H70.9644V67.0641H72.7878ZM73.9169 70.6456C73.9169 69.9163 74.0602 69.2694 74.3467 68.7051C74.6419 68.1407 75.0413 67.7066 75.5449 67.4027C76.0485 67.0988 76.6085 66.9468 77.225 66.9468C77.6938 66.9468 78.141 67.051 78.5664 67.2594C78.9919 67.4591 79.3305 67.7283 79.5823 68.0669V64.6416H81.4317V74.2793H79.5823V73.2113C79.3566 73.5673 79.0396 73.8538 78.6316 74.0709C78.2235 74.288 77.7503 74.3965 77.212 74.3965C76.6042 74.3965 76.0485 74.2402 75.5449 73.9277C75.0413 73.6151 74.6419 73.1766 74.3467 72.6122C74.0602 72.0392 73.9169 71.3836 73.9169 70.6456ZM79.5953 70.6717C79.5953 70.2289 79.5085 69.8512 79.3349 69.5386C79.1612 69.2173 78.9268 68.9742 78.6316 68.8093C78.3364 68.6356 78.0194 68.5488 77.6808 68.5488C77.3422 68.5488 77.0296 68.6313 76.7431 68.7962C76.4566 68.9612 76.2221 69.2043 76.0398 69.5256C75.8662 69.8381 75.7793 70.2115 75.7793 70.6456C75.7793 71.0798 75.8662 71.4618 76.0398 71.7917C76.2221 72.113 76.4566 72.3604 76.7431 72.5341C77.0383 72.7077 77.3509 72.7946 77.6808 72.7946C78.0194 72.7946 78.3364 72.7121 78.6316 72.5471C78.9268 72.3735 79.1612 72.1304 79.3349 71.8178C79.5085 71.4965 79.5953 71.1145 79.5953 70.6717ZM89.7163 70.5154C89.7163 70.7759 89.699 71.0103 89.6642 71.2187H84.3895C84.433 71.7396 84.6153 72.1477 84.9366 72.4429C85.2578 72.7381 85.6529 72.8857 86.1217 72.8857C86.799 72.8857 87.2809 72.5949 87.5674 72.0131H89.534C89.3256 72.7077 88.9262 73.2808 88.3358 73.7323C87.7454 74.1751 87.0204 74.3965 86.1608 74.3965C85.4662 74.3965 84.841 74.2446 84.2854 73.9407C83.7384 73.6281 83.3086 73.1896 82.996 72.6253C82.6921 72.0609 82.5402 71.4097 82.5402 70.6717C82.5402 69.925 82.6921 69.2694 82.996 68.7051C83.2999 68.1407 83.7253 67.7066 84.2723 67.4027C84.8193 67.0988 85.4488 66.9468 86.1608 66.9468C86.8467 66.9468 87.4588 67.0944 87.9972 67.3897C88.5442 67.6849 88.9653 68.106 89.2605 68.653C89.5644 69.1913 89.7163 69.8121 89.7163 70.5154ZM87.8279 69.9944C87.8192 69.5256 87.6499 69.1522 87.3199 68.8744C86.99 68.5879 86.5862 68.4446 86.1087 68.4446C85.6572 68.4446 85.2752 68.5835 84.9626 68.8614C84.6587 69.1305 84.472 69.5082 84.4026 69.9944H87.8279Z" fill="#222222"/>
<path d="M15.7547 83.7646C15.7547 83.2111 15.8822 82.7146 16.1372 82.275C16.3977 81.8355 16.7477 81.4936 17.1873 81.2494C17.6323 80.9998 18.118 80.875 18.6444 80.875C19.2467 80.875 19.7812 81.0242 20.2479 81.3226C20.72 81.6157 21.0619 82.0335 21.2736 82.5762H20.1584C20.0119 82.2777 19.8084 82.0552 19.5479 81.9087C19.2874 81.7622 18.9862 81.6889 18.6444 81.6889C18.2699 81.6889 17.9362 81.7731 17.6431 81.9413C17.3501 82.1095 17.1195 82.351 16.9512 82.6657C16.7884 82.9805 16.707 83.3468 16.707 83.7646C16.707 84.1825 16.7884 84.5488 16.9512 84.8635C17.1195 85.1783 17.3501 85.4225 17.6431 85.5961C17.9362 85.7643 18.2699 85.8485 18.6444 85.8485C18.9862 85.8485 19.2874 85.7752 19.5479 85.6287C19.8084 85.4822 20.0119 85.2597 20.1584 84.9612H21.2736C21.0619 85.5039 20.72 85.9217 20.2479 86.2148C19.7812 86.5078 19.2467 86.6543 18.6444 86.6543C18.1125 86.6543 17.6269 86.5322 17.1873 86.288C16.7477 86.0384 16.3977 85.6938 16.1372 85.2542C15.8822 84.8147 15.7547 84.3181 15.7547 83.7646ZM24.1017 86.6787C23.6784 86.6787 23.2958 86.5838 22.9539 86.3938C22.6121 86.1985 22.3434 85.9271 22.1481 85.5798C21.9527 85.2271 21.855 84.8201 21.855 84.3588C21.855 83.903 21.9554 83.4987 22.1562 83.146C22.357 82.7933 22.6311 82.5219 22.9784 82.332C23.3257 82.1421 23.7137 82.0471 24.1424 82.0471C24.5711 82.0471 24.9591 82.1421 25.3064 82.332C25.6537 82.5219 25.9277 82.7933 26.1285 83.146C26.3293 83.4987 26.4297 83.903 26.4297 84.3588C26.4297 84.8147 26.3266 85.219 26.1204 85.5717C25.9142 85.9244 25.632 86.1985 25.2738 86.3938C24.9211 86.5838 24.5304 86.6787 24.1017 86.6787ZM24.1017 85.8729C24.3404 85.8729 24.5629 85.8159 24.7691 85.7019C24.9808 85.588 25.1517 85.417 25.282 85.1891C25.4122 84.9612 25.4773 84.6844 25.4773 84.3588C25.4773 84.0332 25.4149 83.7592 25.2901 83.5367C25.1653 83.3088 24.9998 83.1379 24.7936 83.0239C24.5874 82.9099 24.3649 82.853 24.1261 82.853C23.8873 82.853 23.6648 82.9099 23.4586 83.0239C23.2578 83.1379 23.0977 83.3088 22.9784 83.5367C22.859 83.7592 22.7993 84.0332 22.7993 84.3588C22.7993 84.8418 22.9214 85.2163 23.1656 85.4822C23.4152 85.7426 23.7272 85.8729 24.1017 85.8729ZM29.4064 82.0471C29.7592 82.0471 30.0739 82.1204 30.3507 82.2669C30.6328 82.4134 30.8526 82.6305 31.01 82.9181C31.1674 83.2057 31.2461 83.553 31.2461 83.96V86.6055H30.3262V84.0984C30.3262 83.6968 30.2258 83.3902 30.0251 83.1786C29.8243 82.9615 29.5502 82.853 29.2029 82.853C28.8556 82.853 28.5789 82.9615 28.3727 83.1786C28.1719 83.3902 28.0715 83.6968 28.0715 84.0984V86.6055H27.1435V82.1204H28.0715V82.6332C28.2234 82.4487 28.4161 82.3049 28.6494 82.2018C28.8882 82.0987 29.1405 82.0471 29.4064 82.0471ZM34.4891 82.0471C34.8419 82.0471 35.1566 82.1204 35.4334 82.2669C35.7155 82.4134 35.9353 82.6305 36.0927 82.9181C36.2501 83.2057 36.3287 83.553 36.3287 83.96V86.6055H35.4089V84.0984C35.4089 83.6968 35.3085 83.3902 35.1078 83.1786C34.907 82.9615 34.6329 82.853 34.2856 82.853C33.9383 82.853 33.6616 82.9615 33.4553 83.1786C33.2546 83.3902 33.1542 83.6968 33.1542 84.0984V86.6055H32.2262V82.1204H33.1542V82.6332C33.3061 82.4487 33.4988 82.3049 33.7321 82.2018C33.9709 82.0987 34.2232 82.0471 34.4891 82.0471ZM41.4196 84.253C41.4196 84.4213 41.4087 84.5732 41.387 84.7089H37.9601C37.9872 85.067 38.1202 85.3546 38.359 85.5717C38.5977 85.7888 38.8908 85.8973 39.2381 85.8973C39.7373 85.8973 40.0901 85.6884 40.2963 85.2705H41.2975C41.1618 85.6829 40.9149 86.0221 40.5567 86.288C40.204 86.5485 39.7645 86.6787 39.2381 86.6787C38.8094 86.6787 38.4241 86.5838 38.0822 86.3938C37.7458 86.1985 37.4798 85.9271 37.2845 85.5798C37.0946 85.2271 36.9996 84.8201 36.9996 84.3588C36.9996 83.8976 37.0918 83.4933 37.2763 83.146C37.4663 82.7933 37.7295 82.5219 38.0659 82.332C38.4078 82.1421 38.7985 82.0471 39.2381 82.0471C39.6614 82.0471 40.0385 82.1394 40.3695 82.3239C40.7005 82.5084 40.9583 82.7688 41.1428 83.1053C41.3273 83.4363 41.4196 83.8189 41.4196 84.253ZM40.4509 83.96C40.4455 83.6181 40.3234 83.3441 40.0846 83.1379C39.8459 82.9316 39.5501 82.8285 39.1974 82.8285C38.8772 82.8285 38.6032 82.9316 38.3752 83.1379C38.1473 83.3386 38.0117 83.6127 37.9682 83.96H40.4509ZM41.82 84.3588C41.82 83.8976 41.9122 83.4933 42.0967 83.146C42.2867 82.7933 42.5471 82.5219 42.8782 82.332C43.2092 82.1421 43.589 82.0471 44.0177 82.0471C44.5604 82.0471 45.0081 82.1773 45.3608 82.4378C45.719 82.6929 45.9605 83.0592 46.0853 83.5367H45.0841C45.0027 83.3142 44.8724 83.1406 44.6934 83.0158C44.5143 82.8909 44.2891 82.8285 44.0177 82.8285C43.6379 82.8285 43.334 82.9642 43.1061 83.2355C42.8836 83.5014 42.7723 83.8759 42.7723 84.3588C42.7723 84.8418 42.8836 85.219 43.1061 85.4903C43.334 85.7616 43.6379 85.8973 44.0177 85.8973C44.555 85.8973 44.9104 85.6612 45.0841 85.1891H46.0853C45.955 85.645 45.7109 86.0085 45.3527 86.2799C44.9945 86.5458 44.5496 86.6787 44.0177 86.6787C43.589 86.6787 43.2092 86.5838 42.8782 86.3938C42.5471 86.1985 42.2867 85.9271 42.0967 85.5798C41.9122 85.2271 41.82 84.8201 41.82 84.3588ZM47.8892 82.8774V85.3601C47.8892 85.5283 47.9272 85.6504 48.0031 85.7264C48.0845 85.7969 48.2202 85.8322 48.4101 85.8322H48.9799V86.6055H48.2473C47.8295 86.6055 47.5093 86.5078 47.2868 86.3124C47.0643 86.1171 46.9531 85.7996 46.9531 85.3601V82.8774H46.424V82.1204H46.9531V81.0052H47.8892V82.1204H48.9799V82.8774H47.8892ZM50.1038 81.5261C49.9356 81.5261 49.7945 81.4692 49.6805 81.3552C49.5666 81.2412 49.5096 81.1002 49.5096 80.9319C49.5096 80.7637 49.5666 80.6226 49.6805 80.5087C49.7945 80.3947 49.9356 80.3377 50.1038 80.3377C50.2666 80.3377 50.405 80.3947 50.5189 80.5087C50.6329 80.6226 50.6899 80.7637 50.6899 80.9319C50.6899 81.1002 50.6329 81.2412 50.5189 81.3552C50.405 81.4692 50.2666 81.5261 50.1038 81.5261ZM50.5596 82.1204V86.6055H49.6317V82.1204H50.5596ZM53.5199 86.6787C53.0966 86.6787 52.7141 86.5838 52.3722 86.3938C52.0303 86.1985 51.7617 85.9271 51.5663 85.5798C51.371 85.2271 51.2733 84.8201 51.2733 84.3588C51.2733 83.903 51.3737 83.4987 51.5745 83.146C51.7753 82.7933 52.0493 82.5219 52.3966 82.332C52.7439 82.1421 53.1319 82.0471 53.5606 82.0471C53.9893 82.0471 54.3773 82.1421 54.7246 82.332C55.0719 82.5219 55.346 82.7933 55.5468 83.146C55.7475 83.4987 55.8479 83.903 55.8479 84.3588C55.8479 84.8147 55.7448 85.219 55.5386 85.5717C55.3324 85.9244 55.0502 86.1985 54.6921 86.3938C54.3393 86.5838 53.9486 86.6787 53.5199 86.6787ZM53.5199 85.8729C53.7587 85.8729 53.9812 85.8159 54.1874 85.7019C54.399 85.588 54.57 85.417 54.7002 85.1891C54.8304 84.9612 54.8956 84.6844 54.8956 84.3588C54.8956 84.0332 54.8332 83.7592 54.7083 83.5367C54.5835 83.3088 54.418 83.1379 54.2118 83.0239C54.0056 82.9099 53.7831 82.853 53.5443 82.853C53.3056 82.853 53.0831 82.9099 52.8769 83.0239C52.6761 83.1379 52.516 83.3088 52.3966 83.5367C52.2772 83.7592 52.2175 84.0332 52.2175 84.3588C52.2175 84.8418 52.3396 85.2163 52.5838 85.4822C52.8334 85.7426 53.1455 85.8729 53.5199 85.8729ZM58.8247 82.0471C59.1774 82.0471 59.4921 82.1204 59.7689 82.2669C60.0511 82.4134 60.2709 82.6305 60.4282 82.9181C60.5856 83.2057 60.6643 83.553 60.6643 83.96V86.6055H59.7445V84.0984C59.7445 83.6968 59.6441 83.3902 59.4433 83.1786C59.2425 82.9615 58.9685 82.853 58.6212 82.853C58.2739 82.853 57.9971 82.9615 57.7909 83.1786C57.5901 83.3902 57.4897 83.6968 57.4897 84.0984V86.6055H56.5618V82.1204H57.4897V82.6332C57.6417 82.4487 57.8343 82.3049 58.0677 82.2018C58.3064 82.0987 58.5588 82.0471 58.8247 82.0471ZM66.9661 85.4496H64.5973L64.1904 86.6055H63.2217L65.2485 80.9401H66.323L68.3499 86.6055H67.3731L66.9661 85.4496ZM66.7056 84.6926L65.7858 82.0634L64.8578 84.6926H66.7056ZM69.9556 82.7797C70.113 82.5735 70.3273 82.3998 70.5986 82.2587C70.87 82.1176 71.1766 82.0471 71.5185 82.0471C71.9092 82.0471 72.2646 82.1448 72.5848 82.3401C72.9104 82.5301 73.1654 82.7987 73.3499 83.146C73.5345 83.4933 73.6267 83.8922 73.6267 84.3426C73.6267 84.793 73.5345 85.1973 73.3499 85.5554C73.1654 85.9081 72.9104 86.1849 72.5848 86.3857C72.2646 86.581 71.9092 86.6787 71.5185 86.6787C71.1766 86.6787 70.8727 86.6109 70.6068 86.4752C70.3409 86.3341 70.1238 86.1605 69.9556 85.9543V88.7381H69.0276V82.1204H69.9556V82.7797ZM72.6825 84.3426C72.6825 84.0332 72.6174 83.7673 72.4871 83.5449C72.3623 83.3169 72.1941 83.146 71.9824 83.032C71.7762 82.9127 71.5537 82.853 71.315 82.853C71.0816 82.853 70.8591 82.9127 70.6475 83.032C70.4413 83.1514 70.2731 83.3251 70.1428 83.553C70.018 83.7809 69.9556 84.0495 69.9556 84.3588C69.9556 84.6682 70.018 84.9395 70.1428 85.1728C70.2731 85.4008 70.4413 85.5744 70.6475 85.6938C70.8591 85.8132 71.0816 85.8729 71.315 85.8729C71.5537 85.8729 71.7762 85.8132 71.9824 85.6938C72.1941 85.569 72.3623 85.3899 72.4871 85.1566C72.6174 84.9232 72.6825 84.6519 72.6825 84.3426ZM75.2688 82.7797C75.4262 82.5735 75.6405 82.3998 75.9119 82.2587C76.1832 82.1176 76.4898 82.0471 76.8317 82.0471C77.2224 82.0471 77.5778 82.1448 77.898 82.3401C78.2236 82.5301 78.4787 82.7987 78.6632 83.146C78.8477 83.4933 78.9399 83.8922 78.9399 84.3426C78.9399 84.793 78.8477 85.1973 78.6632 85.5554C78.4787 85.9081 78.2236 86.1849 77.898 86.3857C77.5778 86.581 77.2224 86.6787 76.8317 86.6787C76.4898 86.6787 76.1859 86.6109 75.92 86.4752C75.6541 86.3341 75.437 86.1605 75.2688 85.9543V88.7381H74.3409V82.1204H75.2688V82.7797ZM77.9957 84.3426C77.9957 84.0332 77.9306 83.7673 77.8003 83.5449C77.6755 83.3169 77.5073 83.146 77.2957 83.032C77.0894 82.9127 76.867 82.853 76.6282 82.853C76.3948 82.853 76.1723 82.9127 75.9607 83.032C75.7545 83.1514 75.5863 83.3251 75.456 83.553C75.3312 83.7809 75.2688 84.0495 75.2688 84.3588C75.2688 84.6682 75.3312 84.9395 75.456 85.1728C75.5863 85.4008 75.7545 85.5744 75.9607 85.6938C76.1723 85.8132 76.3948 85.8729 76.6282 85.8729C76.867 85.8729 77.0894 85.8132 77.2957 85.6938C77.5073 85.569 77.6755 85.3899 77.8003 85.1566C77.9306 84.9232 77.9957 84.6519 77.9957 84.3426Z" fill="#222222"/>
</g>
<defs>
<filter id="filter0_d_248_4034" x="-3" y="0" width="110" height="108.648" filterUnits="userSpaceOnUse" color-interpolation-filters="sRGB">
<feFlood flood-opacity="0" result="BackgroundImageFix"/>
<feColorMatrix in="SourceAlpha" type="matrix" values="0 0 0 0 0 0 0 0 0 0 0 0 0 0 0 0 0 0 127 0" result="hardAlpha"/>
<feOffset dy="4"/>
<feGaussianBlur stdDeviation="2"/>
<feComposite in2="hardAlpha" operator="out"/>
<feColorMatrix type="matrix" values="0 0 0 0 0 0 0 0 0 0 0 0 0 0 0 0 0 0 0.25 0"/>
<feBlend mode="normal" in2="BackgroundImageFix" result="effect1_dropShadow_248_4034"/>
<feBlend mode="normal" in="SourceGraphic" in2="effect1_dropShadow_248_4034" result="shape"/>
</filter>
<clipPath id="clip0_248_4034">
<rect width="55.3516" height="44.3627" fill="white" transform="translate(19.6738 12.9629)"/>
</clipPath>
</defs>
</svg>
