<svg width="25" height="43" viewBox="0 0 25 43" fill="none" xmlns="http://www.w3.org/2000/svg">
<path d="M0.625 28.625H5.375C5.375 31.19 8.62875 33.375 12.5 33.375C16.3713 33.375 19.625 31.19 19.625 28.625C19.625 26.0125 17.155 25.0625 11.93 23.8038C6.895 22.545 0.625 20.9775 0.625 14.375C0.625 10.1237 4.11625 6.51375 8.9375 5.3025V0.125H16.0625V5.3025C20.8837 6.51375 24.375 10.1237 24.375 14.375H19.625C19.625 11.81 16.3713 9.625 12.5 9.625C8.62875 9.625 5.375 11.81 5.375 14.375C5.375 16.9875 7.845 17.9375 13.07 19.1962C18.105 20.455 24.375 22.0225 24.375 28.625C24.375 32.8763 20.8837 36.4862 16.0625 37.6975V42.875H8.9375V37.6975C4.11625 36.4862 0.625 32.8763 0.625 28.625Z" fill="black"/>
</svg>
