<svg width="455" height="361" viewBox="0 0 455 361" fill="none" xmlns="http://www.w3.org/2000/svg">
<path d="M18.2314 16.8064C22.1679 16.7585 26.1162 16.7585 30.0527 16.7346C36.3914 24.4262 42.0523 32.6679 48.4981 40.2758C54.5396 32.3928 60.6762 24.5817 66.8009 16.7705C70.8444 16.7466 74.876 16.7585 78.9195 16.8064C78.9432 37.9073 78.9432 58.9962 78.9195 80.0971C74.6619 80.1809 70.4043 80.1928 66.1468 80.1569C66.0397 66.2691 66.0992 52.3813 66.1111 38.4934C61.9963 43.6371 58.0479 48.9003 53.8379 53.9722C50.175 53.9602 46.5002 53.9602 42.8372 53.9722C38.77 49.0439 35.1308 43.7686 31.0041 38.8882C30.8138 52.6325 31.0279 66.3768 30.897 80.121C26.6752 80.1928 22.4533 80.1928 18.2433 80.0971C18.1957 59.0082 18.2195 37.9073 18.2433 16.8064H18.2314Z" fill="#FFDC58"/>
<path d="M92.5842 16.7946C107.985 16.7707 123.398 16.6989 138.811 16.8185C138.811 20.6224 138.799 24.4263 138.775 28.2302C127.703 28.302 116.619 28.1943 105.535 28.29C105.523 32.2136 105.5 36.1371 105.416 40.0606C115.216 40.5032 125.027 40.1084 134.839 40.264C134.862 44.0798 134.862 47.8837 134.839 51.6996C125.087 51.7235 115.347 51.7235 105.595 51.6996C105.44 57.226 105.5 62.7524 105.523 68.2789C116.595 68.3626 127.667 68.2789 138.739 68.3148C138.835 72.2263 138.835 76.1379 138.751 80.0494C123.374 80.0494 107.985 80.0853 92.6079 80.0255C92.5128 58.9485 92.5604 37.8716 92.5842 16.7946Z" fill="#FFDC58"/>
<path d="M149.728 16.7587C157.744 16.7946 165.771 16.6272 173.787 16.8186C185.263 17.0219 196.502 23.9957 201.33 34.5462C207.836 48.0752 203.685 66.3889 190.639 74.4034C178.52 82.4538 163.417 79.7265 149.74 80.1213C149.693 58.9964 149.716 37.8836 149.728 16.7587ZM162.727 28.1824C162.667 41.5918 162.691 55.0011 162.715 68.3985C170.172 68.5899 178.58 68.9966 184.597 63.7214C194.54 55.8026 193.648 38.1946 182.778 31.5078C176.95 27.3331 169.47 28.1944 162.727 28.1824Z" fill="#FFDC58"/>
<path d="M82.1662 88.4947C88.7904 83.9013 98.9467 85.5042 103.395 92.4062C106.427 96.1264 105.88 101.282 105.452 105.744C103.323 114.644 92.1203 119.357 84.176 115.074C79.8828 113.124 77.6113 108.83 75.3398 104.954C67.5026 105.863 57.6079 102.406 51.721 109.392C47.4397 113.675 48.4506 120.098 48.2841 125.589C47.5705 153.544 53.5049 182.396 68.7632 206.093C79.4665 222.935 95.7713 235.89 114.229 243.151C116.001 243.51 117.582 242.373 119.176 241.799C140.155 232.158 158.826 215.722 167.924 194.071C179.341 169.944 183.325 142.706 181.398 116.175C180.768 111.306 176.843 107.251 172.491 105.373C166.616 104.727 160.61 104.883 154.723 105.253C152.309 109.081 150.216 113.543 145.661 115.242C135.98 120.385 122.898 111.521 124.111 100.564C123.874 91.5569 133.186 84.4156 141.772 86.1262C147.861 86.7362 152.297 91.9397 154.366 97.3944C159.052 97.4422 163.761 97.2269 168.459 97.2747C174.56 97.3345 180.494 99.8705 184.49 104.512C187.154 107.598 189.01 111.33 189.521 115.421C191.888 151.068 184.633 188.724 162.977 217.732C151.869 230.722 138.478 242.194 122.601 248.773C121.186 249.622 118.641 250.149 118.855 252.278C118.724 261.5 118.843 270.723 118.819 279.934C119.235 286.381 119.307 292.984 121.495 299.133C125.895 313.296 136.456 325.341 149.907 331.454C165.807 339.062 185.513 337.913 200.403 328.416C214.602 319.659 224.295 303.858 225.567 287.147C225.758 253.055 225.591 218.976 225.639 184.884C214.21 183.174 203.495 176.236 198.167 165.781C194.183 158.879 193.695 150.589 194.789 142.85C196.775 130.302 206.349 119.488 218.277 115.541C223.831 113.507 229.873 113.591 235.664 114.189C249.4 116.246 261.138 127.491 264.219 141.067C269.023 156.905 259.58 174.764 244.929 181.499C241.385 183.209 237.543 184.131 233.726 184.956C233.726 217.421 233.833 249.897 233.666 282.362C234.023 297.673 228.089 312.937 217.778 324.181C206.682 336.562 190.377 344.313 173.739 344.229C158.862 344.887 143.925 339.373 132.615 329.708C120.484 319.372 112.445 304.157 111.256 288.176C110.946 275.711 111.041 263.235 111.16 250.783C105.761 247.828 99.9932 245.591 94.8318 242.218C73.8294 229.43 58.1312 208.796 49.7825 185.709C41.6718 163.568 38.7938 139.548 40.6966 116.067C40.7441 112.203 42.195 108.686 44.4546 105.696C48.51 100.337 54.9796 97.3585 61.6752 97.2867C66.2895 97.2389 70.9038 97.4302 75.5182 97.3944C77.3615 94.2005 78.8481 90.4803 82.1662 88.4947ZM87.2443 94.7388C83.4149 96.8321 82.3327 102.574 85.1512 105.875C88.1957 110.277 95.9735 109.165 97.7217 104.057C100.612 98.0044 92.8576 91.1024 87.2443 94.7388ZM135.885 94.679C130.082 97.4063 131.295 108.076 138.073 108.435C142.355 109.464 146.006 105.732 146.779 101.772C147.1 96.3776 140.773 91.7603 135.885 94.679ZM221.869 122.742C212.89 125.517 205.314 132.969 203.102 142.252C200.605 151.331 203.15 161.666 209.679 168.448C219.728 179.262 238.804 179.932 248.936 168.927C254.205 163.903 256.964 156.75 257.404 149.56C257.035 142.048 254.252 134.405 248.663 129.213C241.73 122.443 231.109 119.871 221.869 122.742Z" fill="#FFDC58"/>
<path d="M94.4631 121.246C98.5423 120.995 102.645 121.055 106.736 121.091C110.982 133.292 115.204 145.505 119.426 157.718C123.422 146.905 127.334 136.043 130.819 125.05C134.339 124.907 137.871 124.931 141.391 124.955C145.28 135.864 149.371 146.737 152.618 157.85C157.435 145.78 161.133 133.292 165.712 121.139C169.672 121.055 173.632 121.055 177.604 121.103C171.301 140.074 164.725 158.974 157.91 177.767C154.58 177.743 151.239 177.743 147.897 177.731C144.032 166.582 140.476 155.29 135.945 144.393C132.615 155.685 128.203 166.642 124.326 177.767C120.948 177.743 117.582 177.755 114.217 177.695C107.581 158.891 101.278 139.979 94.4631 121.246Z" fill="black"/>
<path d="M279.441 121.139C287.421 121.043 295.413 121.031 303.393 121.115C310.386 121.091 317.628 124.703 320.958 131.031C323.836 135.876 323.646 142.192 320.804 147.012C317.997 152.288 312.467 155.194 306.937 156.726C312.562 163.795 318.484 170.613 324.086 177.695C319.472 177.767 314.869 177.743 310.255 177.743C304.606 170.901 298.945 164.046 293.272 157.228C292.666 157.228 291.464 157.228 290.858 157.24C290.846 164.07 290.858 170.901 290.846 177.731C287.017 177.767 283.187 177.803 279.37 177.611C279.536 158.783 279.405 139.967 279.441 121.139ZM290.846 146.797C295.294 146.737 299.754 146.989 304.201 146.654C308.126 146.39 311.301 142.694 311.563 138.842C311.278 135.553 308.994 132.407 305.652 131.761C300.788 130.744 295.781 131.414 290.858 131.235C290.846 136.414 290.858 141.606 290.846 146.797Z" fill="black"/>
<path d="M336.502 121.019C340.272 120.995 344.054 120.995 347.836 121.019C347.836 136.546 347.859 152.072 347.824 167.599C356.22 167.671 364.628 167.599 373.024 167.635C373.012 171.008 373.012 174.369 373.012 177.743C360.834 177.719 348.656 177.814 336.478 177.695C336.537 158.795 336.49 139.907 336.502 121.019Z" fill="black"/>
<path d="M387.985 120.995C400.128 121.701 413.661 118.507 424.4 125.9C436.911 133.794 440.491 152.156 432.571 164.513C427.933 172.121 419.382 176.75 410.653 177.468C403.113 178.066 395.537 177.599 387.985 177.755C387.961 158.831 387.985 139.919 387.985 120.995ZM399.307 131.139C399.307 143.292 399.307 155.458 399.307 167.623C405.61 167.802 412.436 167.946 417.871 164.202C427.647 157.754 427.695 141.295 418.097 134.668C412.698 130.637 405.658 131.055 399.307 131.139Z" fill="black"/>
</svg>
