<svg width="45" height="36" viewBox="0 0 45 36" fill="none" xmlns="http://www.w3.org/2000/svg">
<path d="M10.125 0C11.6168 0 13.0476 0.592632 14.1025 1.64752C15.1574 2.70242 15.75 4.13316 15.75 5.625C15.75 7.11684 15.1574 8.54758 14.1025 9.60248C13.0476 10.6574 11.6168 11.25 10.125 11.25C8.63316 11.25 7.20242 10.6574 6.14752 9.60248C5.09263 8.54758 4.5 7.11684 4.5 5.625C4.5 4.13316 5.09263 2.70242 6.14752 1.64752C7.20242 0.592632 8.63316 0 10.125 0ZM36 0C37.4918 0 38.9226 0.592632 39.9775 1.64752C41.0324 2.70242 41.625 4.13316 41.625 5.625C41.625 7.11684 41.0324 8.54758 39.9775 9.60248C38.9226 10.6574 37.4918 11.25 36 11.25C34.5082 11.25 33.0774 10.6574 32.0225 9.60248C30.9676 8.54758 30.375 7.11684 30.375 5.625C30.375 4.13316 30.9676 2.70242 32.0225 1.64752C33.0774 0.592632 34.5082 0 36 0ZM0 21.0023C0 16.8609 3.36094 13.5 7.50234 13.5H10.5047C11.6227 13.5 12.6844 13.7461 13.6406 14.182C13.5492 14.6883 13.507 15.2156 13.507 15.75C13.507 18.4359 14.6883 20.8477 16.5516 22.5H1.49766C0.675 22.5 0 21.825 0 21.0023ZM28.4977 22.5H28.4484C30.3188 20.8477 31.493 18.4359 31.493 15.75C31.493 15.2156 31.4438 14.6953 31.3594 14.182C32.3156 13.7391 33.3773 13.5 34.4953 13.5H37.4977C41.6391 13.5 45 16.8609 45 21.0023C45 21.832 44.325 22.5 43.5023 22.5H28.5047H28.4977ZM15.75 15.75C15.75 13.9598 16.4612 12.2429 17.727 10.977C18.9929 9.71116 20.7098 9 22.5 9C24.2902 9 26.0071 9.71116 27.273 10.977C28.5388 12.2429 29.25 13.9598 29.25 15.75C29.25 17.5402 28.5388 19.2571 27.273 20.523C26.0071 21.7888 24.2902 22.5 22.5 22.5C20.7098 22.5 18.9929 21.7888 17.727 20.523C16.4612 19.2571 15.75 17.5402 15.75 15.75ZM9 34.1227C9 28.9477 13.1977 24.75 18.3727 24.75H26.6203C31.8023 24.75 36 28.9477 36 34.1227C36 35.1562 35.1633 36 34.1227 36H10.8703C9.83672 36 8.99297 35.1633 8.99297 34.1227H9Z" fill="black"/>
</svg>
